<svg xmlns="http://www.w3.org/2000/svg" width="183" height="53" viewBox="0 0 183 53"><g xmlns:sketch="http://www.bohemiancoding.com/sketch/ns"><g fill="#FFF"><path d="M9 47.5c0 .7-.1 1.3-.4 1.8-.5.9-1.3 1.3-2.5 1.3s-2.1-.5-2.6-1.3c-.2-.5-.3-1.1-.3-1.8v-8H.4v8.2c0 1.1.2 2 .6 2.7.9 1.7 2.6 2.5 5.1 2.5s4.2-.8 5.1-2.5c.4-.7.6-1.6.6-2.7v-8.2H9v8zM23.3 46h.1v2.2c-.4-.5-.8-1.1-1.4-1.8l-5.3-6.9H14v13.2h2.7v-7.1c0-.6 0-1.5-.1-1.9.5.6.9 1.2 1.4 1.8l5.5 7.2H26V39.5h-2.7V46zM28.4 39.5h2.7v13.2h-2.7zM39.6 46.3c-.4 1-.7 1.9-.9 2.6-.3-.8-.6-1.6-.9-2.6L35 39.5h-2.9l5.4 13.3h2.3l5.4-13.3h-2.9l-2.7 6.8zM52.9 41.8l.7-2.3H46v13.2h7.6v-2.4h-4.8v-3.2h4.1v-2.3h-4.1v-3zM61.7 46.7c1.5-.5 2.6-1.7 2.6-3.4 0-1.4-.6-2.7-2.1-3.3-.7-.3-1.6-.5-2.8-.5h-3.9v13.2h2.7v-5h1c.3.1.8.6 1.4 1.8l1.7 3.2h3.1l-2.1-3.8c-.6-1.2-1.2-2-1.6-2.2zm-1.1-1.5c-.3.2-.7.3-1.3.3h-1v-3.8h1c.6 0 1 .1 1.3.3.6.3.9.9.9 1.6s-.4 1.3-.9 1.6zM69.7 42.9c0-.9.7-1.2 1.6-1.2 1.1 0 2.1.3 3.3.9V40c-.8-.4-1.9-.7-3.3-.7-2.8 0-4.4 1.8-4.4 3.8 0 4 5.6 3.7 5.6 6.1 0 1-1 1.4-2 1.4-1.2 0-2.2-.4-3-1l-1 2.1c1.1.8 2.6 1.2 4.1 1.2 2.8 0 4.9-1.5 4.9-3.9-.2-4.2-5.8-3.9-5.8-6.1zM77 39.5h2.7v13.2H77zM80.6 41.8h3.9v10.9h2.7V41.8h3.5l.7-2.3H80.6zM97.7 45.1h-.1l-2.9-5.6h-3l4.6 7.9v5.3H99v-5.2l4.6-8h-3zM113 39.3c-4 0-6.7 2.8-6.7 6.8s2.8 6.8 6.7 6.8 6.7-2.7 6.7-6.8c0-4-2.8-6.8-6.7-6.8zm0 11.3c-2.3 0-3.8-1.6-3.8-4.5s1.5-4.5 3.8-4.5 3.8 1.6 3.8 4.5-1.6 4.5-3.8 4.5zM121.4 52.7h2.7v-5.6h4.2v-2.3h-4.2v-3h4.2l.7-2.3h-7.6zM137.1 39.5h-2.8v13.2h7.4v-2.4h-4.6zM150.3 41.8l.7-2.3h-7.6v13.2h7.6v-2.4h-4.9v-3.2h4.2v-2.3h-4.2v-3zM159.7 41.8l.7-2.3h-7.6v13.2h7.6v-2.4h-4.9v-3.2h4.2v-2.3h-4.2v-3zM166.3 39.5h-4.4v13.2h4.2c4.5 0 7.5-2.6 7.5-6.7 0-4-2.6-6.5-7.3-6.5zm-.2 10.8h-1.5v-8.5h1.4c3 0 4.6 1.6 4.6 4.2.1 2.4-1.2 4.3-4.5 4.3zM177.2 42.9c0-.9.7-1.2 1.6-1.2 1.1 0 2.1.3 3.3.9V40c-.8-.4-1.9-.7-3.3-.7-2.8 0-4.4 1.8-4.4 3.8 0 4 5.6 3.7 5.6 6.1 0 1-1 1.4-2 1.4-1.2 0-2.2-.4-3-1l-1 2.1c1.1.8 2.6 1.2 4.1 1.2 2.8 0 4.9-1.5 4.9-3.9-.1-4.2-5.8-3.9-5.8-6.1zM175 12h1v-1h1v-1h-2zM175 20h1v-4h1v-1h-2zM170 13h7v1h-7zM172.5 20h1v-4h1v-1h-2zM173.5 11h1v-1h-2v2h1zM171 11h1v-1h-2v2h1zM170 20h1v-4h1v-1h-2zM172 24h1v1h-1zM173 25h1v1h-1zM174 24h1v1h-1zM173 23h1v1h-1z"/><path d="M151 0v32h16v-9h3v9h1V22h5v10h1v-9h3v9h3V0h-32zm22.6 3l3.4 3h-7l3.6-3zm-4.1 3.9h7.9l.1 1.1h-8V6.9zM180 22h-3v-1h-7v1h-3v-1h1v-8h1V9h9v3.9h1v8h1V22z"/></g></g></svg>